<svg width="24" height="24" viewBox="0 0 24 24" fill="none" xmlns="http://www.w3.org/2000/svg">
  <path
    d="M3 8.44828C4.07143 8.44828 6.41633 8.15862 7.22449 7C8.03265 8.15862 8.63268 8.33687 9.70411 8.33687M9.52042 8.33687C10.5919 8.33687 11.1919 8.15862 12 7C12.8082 8.15862 13.4082 8.33687 14.4796 8.33687M14.2959 8.33687C15.3673 8.33687 15.9673 8.15862 16.7755 7C17.5837 8.15862 19.9286 8.44828 21 8.44828"
    stroke="white" stroke-linecap="round" />
  <path
    d="M3 12.4483C4.07143 12.4483 6.41633 12.1586 7.22449 11C8.03265 12.1586 8.63268 12.3369 9.70411 12.3369M9.52042 12.3369C10.5919 12.3369 11.1919 12.1586 12 11C12.8082 12.1586 13.4082 12.3369 14.4796 12.3369M14.2959 12.3369C15.3673 12.3369 15.9673 12.1586 16.7755 11C17.5837 12.1586 19.9286 12.4483 21 12.4483"
    stroke="white" stroke-linecap="round" />
  <path
    d="M3 16.4483C4.07143 16.4483 6.41633 16.1586 7.22449 15C8.03265 16.1586 8.63268 16.3369 9.70411 16.3369M9.52042 16.3369C10.5919 16.3369 11.1919 16.1586 12 15C12.8082 16.1586 13.4082 16.3369 14.4796 16.3369M14.2959 16.3369C15.3673 16.3369 15.9673 16.1586 16.7755 15C17.5837 16.1586 19.9286 16.4483 21 16.4483"
    stroke="white" stroke-linecap="round" />
</svg>
